<?xml version="1.0" standalone="no"?>
<!DOCTYPE svg PUBLIC "-//W3C//DTD SVG 20010904//EN"
 "http://www.w3.org/TR/2001/REC-SVG-20010904/DTD/svg10.dtd">
<svg version="1.0" xmlns="http://www.w3.org/2000/svg"
 width="600.000000pt" height="120.000000pt" viewBox="0 0 600.000000 120.000000"
 preserveAspectRatio="xMidYMid meet">
<metadata>
Created by potrace 1.16, written by Peter Selinger 2001-2019
</metadata>
<g transform="translate(0.000000,120.000000) scale(0.100000,-0.100000)"
fill="#000000" stroke="none">
<path d="M1632 708 c-6 -18 -14 -52 -18 -75 -6 -38 -4 -43 12 -43 11 0 29 15
42 34 15 21 34 36 54 40 61 12 58 21 58 -174 l0 -180 -26 0 c-18 0 -25 -5 -22
-16 5 -23 201 -23 206 0 3 11 -4 16 -22 16 l-26 0 0 181 0 181 43 -7 c23 -4
48 -14 55 -23 7 -10 21 -27 30 -39 11 -15 21 -20 30 -14 11 7 12 21 3 76 -5
37 -12 69 -14 71 -2 2 -20 -3 -40 -11 -51 -21 -280 -21 -321 0 -15 8 -29 15
-30 15 -1 0 -7 -15 -14 -32z"/>
<path d="M2316 713 c-41 -11 -97 -55 -123 -95 -25 -38 -28 -50 -28 -132 0 -81
3 -95 25 -128 38 -56 90 -81 182 -86 69 -4 84 -2 130 21 118 59 156 226 76
340 -37 52 -95 80 -173 83 -38 2 -79 0 -89 -3z m97 -44 c77 -40 113 -145 91
-259 -10 -45 -67 -100 -105 -100 -86 0 -154 121 -134 240 5 30 19 54 49 86 44
46 62 52 99 33z"/>
<path d="M4370 712 c-100 -46 -116 -152 -34 -220 19 -16 52 -34 72 -41 51 -16
71 -33 78 -68 7 -37 -25 -73 -66 -73 -31 0 -73 41 -87 85 -21 64 -49 25 -52
-72 -1 -42 0 -43 32 -43 17 0 64 -2 102 -5 60 -5 75 -3 103 14 40 26 52 55 52
128 0 51 -3 58 -36 89 -20 18 -51 36 -68 40 -41 8 -96 50 -96 73 0 10 11 28
25 41 21 20 30 22 53 14 15 -5 38 -26 51 -47 14 -21 32 -37 43 -37 18 0 19 5
12 58 -3 31 -8 59 -9 62 -5 8 -158 10 -175 2z"/>
<path d="M2732 693 c2 -9 14 -20 28 -23 l25 -6 3 -154 c3 -185 1 -200 -34
-200 -18 0 -25 -5 -22 -16 5 -25 289 -23 344 2 132 60 167 257 63 357 -47 45
-103 57 -261 57 -135 0 -149 -2 -146 -17z m237 -28 c55 -19 87 -51 106 -104
20 -58 19 -89 -6 -148 -14 -35 -32 -57 -62 -76 -47 -31 -73 -34 -99 -10 -16
14 -18 34 -18 173 0 108 4 160 12 168 15 15 17 15 67 -3z"/>
<path d="M3312 693 c2 -9 14 -20 28 -23 l25 -6 3 -177 2 -177 -31 0 c-22 0
-30 -4 -27 -16 3 -13 27 -16 182 -16 l178 0 13 26 c20 38 28 83 15 91 -6 3
-33 -14 -61 -39 -45 -41 -56 -46 -98 -46 -26 0 -52 5 -59 12 -7 7 -12 42 -12
85 l0 73 33 0 c25 0 36 -6 50 -31 27 -49 42 -32 45 54 3 71 1 77 -17 77 -12 0
-25 -11 -33 -27 -10 -21 -22 -29 -46 -31 l-32 -3 0 80 c0 90 -1 89 74 72 22
-6 54 -25 75 -45 51 -50 65 -48 56 10 -11 79 2 74 -192 74 -159 0 -174 -2
-171 -17z"/>
<path d="M3780 690 c0 -12 7 -20 18 -20 11 0 38 -36 80 -109 62 -108 63 -110
60 -178 -3 -62 -5 -68 -26 -71 -14 -2 -22 -9 -20 -19 5 -23 192 -22 196 1 2
10 -4 16 -16 16 -15 0 -21 9 -26 38 -11 70 -7 106 19 144 14 20 25 42 25 47 0
6 3 11 8 11 4 0 20 25 36 55 21 37 39 58 58 64 15 6 28 17 28 25 0 13 -14 16
-80 16 -73 0 -80 -2 -80 -20 0 -13 7 -20 20 -20 11 0 20 -5 20 -10 0 -20 -74
-150 -82 -142 -4 4 -23 39 -42 77 -33 66 -34 70 -15 77 10 4 19 14 19 23 0 12
-17 15 -100 15 -93 0 -100 -1 -100 -20z"/>
</g>
</svg>
